<svg width="60" height="61" viewBox="0 0 60 61" fill="none" xmlns="http://www.w3.org/2000/svg">
<g clip-path="url(#clip0_36_318)">
<path d="M12.1587 40.714C18.0991 47.7881 25.25 53.358 33.4118 57.2991C36.5193 58.7662 40.675 60.5068 45.305 60.8051C45.5921 60.8176 45.8666 60.83 46.1537 60.83C49.2611 60.83 51.7571 59.7608 53.7913 57.5602C53.8038 57.5478 53.8287 57.5229 53.8412 57.498C54.565 56.6278 55.3887 55.8445 56.2498 55.0115C56.8364 54.452 57.4354 53.8677 58.0095 53.2709C60.6677 50.5109 60.6677 47.0049 57.9845 44.3319L50.4841 36.8598C49.2112 35.542 47.6887 34.8457 46.0913 34.8457C44.4939 34.8457 42.9588 35.542 41.6485 36.8474L37.1807 41.2983C36.7689 41.0621 36.3446 40.8507 35.9452 40.6518C35.446 40.4031 34.9843 40.1669 34.5724 39.9058C30.504 37.3323 26.81 33.9755 23.2782 29.6613C21.4936 27.411 20.2955 25.5213 19.4594 23.5942C20.6325 22.5374 21.7307 21.4309 22.7915 20.3493C23.1659 19.9639 23.5528 19.5784 23.9396 19.193C25.2875 17.8503 26.0113 16.2962 26.0113 14.7173C26.0113 13.1383 25.2999 11.5842 23.9396 10.2415L20.2207 6.53655C19.7839 6.10141 19.372 5.6787 18.9477 5.24355C18.1241 4.39813 17.263 3.52785 16.4143 2.74459C15.1289 1.48889 13.6189 0.829956 12.0215 0.829956C10.4365 0.829956 8.91399 1.48889 7.57865 2.75702L2.91121 7.40684C1.21396 9.09768 0.253014 11.1491 0.0533374 13.5237C-0.183778 16.4951 0.365332 19.653 1.78803 23.4699C3.97199 29.3754 7.26665 34.8582 12.1587 40.714ZM3.09841 13.7848C3.24816 12.1313 3.88463 10.7512 5.08269 9.55768L9.72517 4.93274C10.449 4.23651 11.2477 3.87596 12.0215 3.87596C12.7827 3.87596 13.5565 4.23651 14.2678 4.9576C15.104 5.72843 15.8902 6.53655 16.7388 7.3944C17.1631 7.82955 17.5999 8.26469 18.0367 8.71226L21.7557 12.4172C22.5294 13.1881 22.9288 13.9713 22.9288 14.7421C22.9288 15.513 22.5294 16.2962 21.7557 17.0671C21.3688 17.4525 20.9819 17.8503 20.5951 18.2357C19.4344 19.4044 18.3487 20.5109 17.1506 21.5677C17.1257 21.5925 17.1132 21.605 17.0882 21.6298C16.0524 22.6617 16.2147 23.6439 16.4643 24.3899C16.4767 24.4272 16.4892 24.452 16.5017 24.4893C17.4626 26.7894 18.798 28.9775 20.8821 31.5884C24.626 36.1885 28.5696 39.7566 32.9126 42.5043C33.4492 42.8524 34.0233 43.1259 34.5599 43.3994C35.0591 43.6481 35.5209 43.8843 35.9327 44.1454C35.9826 44.1702 36.0201 44.1951 36.07 44.22C36.4818 44.4313 36.8812 44.5308 37.2805 44.5308C38.2789 44.5308 38.9279 43.8967 39.14 43.6854L43.8075 39.0356C44.5313 38.3145 45.3175 37.929 46.0913 37.929C47.0397 37.929 47.8135 38.5134 48.3002 39.0356L55.8255 46.52C57.3231 48.0119 57.3106 49.6282 55.7881 51.2071C55.2639 51.7666 54.7148 52.3012 54.1282 52.8607C53.2547 53.7061 52.3436 54.5764 51.52 55.5586C50.0848 57.1002 48.3751 57.8213 46.1661 57.8213C45.954 57.8213 45.7294 57.8089 45.5172 57.7964C41.4238 57.5353 37.6175 55.944 34.7596 54.5888C26.9972 50.8466 20.1832 45.5378 14.5299 38.7993C9.87493 33.2171 6.7425 28.0202 4.67086 22.4504C3.38544 19.0314 2.89873 16.2838 3.09841 13.7848Z" fill="#307BC4"/>
</g>
<defs>
<clipPath id="clip0_36_318">
<rect width="60" height="60" fill="white" transform="translate(0 0.829956)"/>
</clipPath>
</defs>
</svg>
