<svg width="41" height="41" viewBox="0 0 41 41" fill="none" xmlns="http://www.w3.org/2000/svg">
<rect x="0.660156" y="0.379944" width="40" height="40" rx="20" fill="#307BC4" fill-opacity="0.6"/>
<g clip-path="url(#clip0_17_1058)">
<path d="M16.3105 27.13H13.0489V16.6147H16.3105V27.13ZM14.678 15.1803C13.635 15.1803 12.7891 14.3155 12.7891 13.2714C12.7891 12.7698 12.9881 12.2888 13.3423 11.9342C13.6965 11.5795 14.177 11.3803 14.678 11.3803C15.1789 11.3803 15.6594 11.5795 16.0136 11.9342C16.3678 12.2888 16.5668 12.7698 16.5668 13.2714C16.5668 14.3155 15.7206 15.1803 14.678 15.1803ZM28.5175 27.13H25.263V22.0112C25.263 20.7913 25.2384 19.2268 23.5672 19.2268C21.8715 19.2268 21.6116 20.5522 21.6116 21.9233V27.13H18.3536V16.6147H21.4817V18.0491H21.5273C21.9628 17.2229 23.0264 16.3511 24.6133 16.3511C27.9142 16.3511 28.5211 18.5272 28.5211 21.3538V27.13H28.5175Z" fill="white"/>
</g>
<defs>
<clipPath id="clip0_17_1058">
<rect width="15.81" height="18" fill="white" transform="translate(12.75 11.3799)"/>
</clipPath>
</defs>
</svg>
