<svg width="41" height="41" viewBox="0 0 41 41" fill="none" xmlns="http://www.w3.org/2000/svg">
<rect x="0.660156" y="0.379944" width="40" height="40" rx="20" fill="#307BC4" fill-opacity="0.6"/>
<g clip-path="url(#clip0_17_1061)">
<path d="M27.8099 16.7137C27.8213 16.8736 27.8213 17.0335 27.8213 17.1934C27.8213 22.0703 24.1094 27.6896 17.3251 27.6896C15.235 27.6896 13.2934 27.0842 11.6602 26.0335C11.9571 26.0678 12.2426 26.0792 12.551 26.0792C14.2756 26.0792 15.8632 25.4967 17.131 24.5031C15.5091 24.4688 14.15 23.4066 13.6817 21.9447C13.9102 21.9789 14.1386 22.0018 14.3784 22.0018C14.7096 22.0018 15.0409 21.9561 15.3492 21.8761C13.6589 21.5335 12.3911 20.0487 12.3911 18.2556V18.2099C12.8822 18.484 13.4533 18.6553 14.0586 18.6782C13.0649 18.0157 12.4139 16.885 12.4139 15.6058C12.4139 14.9206 12.5966 14.2924 12.9165 13.7442C14.7325 15.9827 17.4622 17.4446 20.523 17.6046C20.466 17.3304 20.4317 17.0449 20.4317 16.7594C20.4317 14.7264 22.0764 13.0703 24.1208 13.0703C25.1829 13.0703 26.1423 13.5157 26.8162 14.2353C27.6499 14.0754 28.4494 13.767 29.1576 13.3444C28.8834 14.201 28.3009 14.9206 27.5357 15.3774C28.2781 15.2975 28.9977 15.0919 29.6601 14.8064C29.1576 15.5373 28.5294 16.1883 27.8099 16.7137Z" fill="white"/>
</g>
<defs>
<clipPath id="clip0_17_1061">
<rect width="18" height="18" fill="white" transform="translate(11.6602 11.3799)"/>
</clipPath>
</defs>
</svg>
